<?xml version="1.0" encoding="iso-8859-1"?>
<!-- Generator: Adobe Illustrator 19.0.0, SVG Export Plug-In . SVG Version: 6.00 Build 0)  -->
<svg xmlns="http://www.w3.org/2000/svg" xmlns:xlink="http://www.w3.org/1999/xlink" version="1.1" id="Layer_1" x="0px" y="0px" viewBox="0 0 512 512" style="enable-background:new 0 0 512 512;" xml:space="preserve" width="512px" height="512px">
<g>
	<g>
		<g>
			<path d="M174.91,70.063h97.505c6.268,0,12.107-3.097,15.621-8.287c3.514-5.19,4.222-11.763,1.895-17.582l-12.935-32.337     C274.115,4.654,267.24,0,259.482,0h-71.636c-7.76,0-14.635,4.654-17.516,11.858l-12.935,32.337     c-2.327,5.82-1.619,12.393,1.895,17.582S168.643,70.063,174.91,70.063z M172.408,50.199l12.935-32.337     c0.412-1.028,1.394-1.693,2.502-1.693h71.636c1.108,0,2.09,0.665,2.502,1.693l12.935,32.337c0.462,1.155,0.028,2.068-0.271,2.511     c-0.299,0.443-0.987,1.185-2.231,1.185H174.91c-1.244,0-1.933-0.743-2.231-1.185C172.38,52.268,171.947,51.354,172.408,50.199z" fill="#FFFFFF"/>
			<path d="M177.853,115.874c0-4.466-3.619-8.084-8.084-8.084H94.316c-4.466,0-8.084,3.618-8.084,8.084     c0,4.466,3.619,8.084,8.084,8.084h75.453C174.234,123.958,177.853,120.339,177.853,115.874z" fill="#FFFFFF"/>
			<path d="M496.836,176.277l-22.163-4.432c-1.332-3.935-2.926-7.781-4.765-11.503l12.537-18.806     c4.97-7.456,3.98-17.465-2.356-23.802l-10.369-10.369c-5.945-5.945-15.123-7.185-22.393-3.208V61.979     c0-16.344-13.298-29.642-29.642-29.642h-32.337h-11.857h-63.596c-4.466,0-8.084,3.618-8.084,8.084     c0,4.466,3.618,8.084,8.084,8.084h63.596h3.773v26.981c-8.639,0.347-16.037,6.592-17.744,15.13l-4.432,22.162     c-3.935,1.332-7.78,2.926-11.504,4.766l-18.805-12.537c-7.457-4.97-17.466-3.979-23.802,2.356l-10.369,10.369     c-6.336,6.337-7.326,16.346-2.356,23.802l12.537,18.805c-1.84,3.724-3.434,7.57-4.766,11.504l-22.161,4.432     c-8.786,1.757-15.164,9.536-15.164,18.497v14.664c0,8.961,6.378,16.74,15.164,18.497l22.161,4.432     c1.332,3.935,2.927,7.78,4.766,11.504l-12.537,18.805c-4.97,7.456-3.98,17.465,2.356,23.802l10.369,10.369     c6.337,6.335,16.346,7.329,23.802,2.356l18.805-12.537c3.724,1.84,7.57,3.434,11.504,4.766l4.432,22.161     c1.757,8.786,9.536,15.164,18.497,15.164h14.664c8.961,0,16.74-6.378,18.497-15.164l4.432-22.161     c3.935-1.332,7.78-2.926,11.504-4.766l18.805,12.537c7.458,4.971,17.467,3.98,23.802-2.356l10.369-10.369     c6.336-6.337,7.326-16.346,2.356-23.802l-12.537-18.805c1.84-3.724,3.434-7.57,4.766-11.504l22.161-4.432     c8.786-1.757,15.164-9.536,15.164-18.497v-14.664C512,185.813,505.622,178.034,496.836,176.277z M393.432,48.505h24.253     c7.43,0,13.474,6.044,13.474,13.474v52.869l-4.045,2.697c-3.724-1.84-7.57-3.434-11.504-4.766l-4.432-22.161     c-1.707-8.538-9.105-14.783-17.744-15.13V48.505z M495.832,209.437c0,1.279-0.911,2.392-2.167,2.642l-26.877,5.375     c-2.985,0.597-5.38,2.819-6.2,5.749c-1.674,5.986-4.069,11.767-7.118,17.181c-1.494,2.653-1.37,5.919,0.318,8.452l15.205,22.807     c0.71,1.065,0.568,2.495-0.337,3.4l-10.369,10.369c-0.905,0.906-2.334,1.048-3.4,0.337l-22.807-15.205     c-2.534-1.69-5.8-1.811-8.452-0.318c-5.413,3.049-11.194,5.443-17.181,7.118c-2.931,0.82-5.152,3.215-5.75,6.2l-5.375,26.877     c-0.25,1.256-1.361,2.167-2.642,2.167h-14.664c-1.279,0-2.392-0.911-2.642-2.167l-5.375-26.877c-0.597-2.985-2.819-5.38-5.75-6.2     c-5.986-1.674-11.767-4.069-17.181-7.118c-1.235-0.695-2.602-1.04-3.968-1.04c-1.567,0-3.13,0.455-4.484,1.358l-22.807,15.205     c-1.066,0.71-2.494,0.569-3.4-0.337l-10.369-10.369c-0.905-0.904-1.048-2.335-0.337-3.4l15.205-22.807     c1.688-2.533,1.812-5.799,0.318-8.452c-3.049-5.413-5.443-11.194-7.118-17.181c-0.82-2.931-3.215-5.152-6.2-5.75l-26.877-5.375     c-1.256-0.25-2.167-1.361-2.167-2.642v-14.664c0-1.279,0.911-2.392,2.167-2.642l26.877-5.375c2.985-0.597,5.38-2.819,6.2-5.75     c1.674-5.986,4.069-11.767,7.118-17.181c1.494-2.653,1.37-5.919-0.318-8.452l-15.205-22.807c-0.71-1.065-0.568-2.495,0.337-3.4     l10.369-10.369c0.904-0.907,2.333-1.049,3.4-0.337l22.807,15.205c2.533,1.689,5.799,1.81,8.452,0.318     c5.413-3.049,11.194-5.443,17.181-7.118c2.931-0.82,5.152-3.215,5.75-6.2l5.375-26.877c0.25-1.256,1.361-2.167,2.642-2.167     h14.664c1.279,0,2.392,0.911,2.642,2.167l5.375,26.877c0.597,2.985,2.819,5.38,5.75,6.2c5.986,1.674,11.767,4.069,17.181,7.118     c2.653,1.494,5.919,1.372,8.452-0.318l22.807-15.205c1.066-0.711,2.495-0.569,3.4,0.337l10.369,10.369     c0.905,0.904,1.048,2.335,0.337,3.4l-15.205,22.807c-1.688,2.533-1.812,5.799-0.318,8.452c3.047,5.41,5.442,11.191,7.118,17.182     c0.82,2.93,3.215,5.151,6.2,5.748l26.877,5.375c1.256,0.25,2.167,1.361,2.167,2.642V209.437z" fill="#FFFFFF"/>
			<path d="M385.347,158.451c-24.072,0-43.655,19.583-43.655,43.655s19.583,43.655,43.655,43.655c4.466,0,8.084-3.618,8.084-8.084     c0-4.466-3.618-8.084-8.084-8.084c-15.156,0-27.486-12.33-27.486-27.486c0-15.156,12.33-27.486,27.486-27.486     c15.156,0,27.486,12.33,27.486,27.486c0,6.079-1.942,11.837-5.617,16.653c-2.709,3.549-2.028,8.622,1.522,11.331     c3.549,2.71,8.623,2.026,11.331-1.522c5.844-7.657,8.932-16.809,8.932-26.462C429.002,178.034,409.419,158.451,385.347,158.451z" fill="#FFFFFF"/>
			<path d="M94.316,140.126c-4.466,0-8.084,3.618-8.084,8.084c0,4.466,3.619,8.084,8.084,8.084h53.895     c4.466,0,8.084-3.618,8.084-8.084c0-4.466-3.618-8.084-8.084-8.084H94.316z" fill="#FFFFFF"/>
			<path d="M439.242,312.589c-4.466,0-8.084,3.618-8.084,8.084v161.684c0,7.43-6.044,13.474-13.474,13.474H29.642     c-7.43,0-13.474-6.044-13.474-13.474V61.979c0-7.43,6.044-13.474,13.474-13.474h24.253v390.737     c0,10.401,8.463,18.863,18.863,18.863h226.358c4.466,0,8.084-3.619,8.084-8.084c0-4.466-3.618-8.084-8.084-8.084H72.758     c-1.486,0-2.695-1.208-2.695-2.695v-24.253h307.2v24.254c0,1.486-1.208,2.695-2.695,2.695h-43.116     c-4.466,0-8.084,3.619-8.084,8.084s3.619,8.084,8.084,8.084h43.116c10.401,0,18.863-8.463,18.863-18.863v-86.232     c0-4.466-3.618-8.084-8.084-8.084c-4.466,0-8.084,3.618-8.084,8.084v45.81h-307.2V317.98h35.449     c4.115,0,7.949,1.843,10.521,5.056l30.17,37.712c5.655,7.07,14.092,11.125,23.147,11.125h57.547c8.602,0,16.768-3.728,22.4-10.23     l40.263-46.456c2.924-3.374,2.559-8.48-0.815-11.404c-3.374-2.923-8.479-2.559-11.404,0.815l-40.263,46.457     c-2.56,2.955-6.27,4.649-10.181,4.649h-57.546c-4.117,0-7.951-1.843-10.521-5.056l-30.17-37.713     c-5.657-7.069-14.095-11.124-23.147-11.124h-35.45v-91.621h158.451c4.466,0,8.084-3.618,8.084-8.084     c0-4.466-3.618-8.084-8.084-8.084H70.063V48.505h2.156h65.213c4.466,0,8.084-3.618,8.084-8.084c0-4.466-3.618-8.084-8.084-8.084     H72.219h-10.24H29.642C13.298,32.337,0,45.635,0,61.979v420.379C0,498.702,13.298,512,29.642,512h388.042     c16.344,0,29.642-13.298,29.642-29.642V320.674C447.326,316.208,443.708,312.589,439.242,312.589z" fill="#FFFFFF"/>
		</g>
	</g>
</g>
<g>
</g>
<g>
</g>
<g>
</g>
<g>
</g>
<g>
</g>
<g>
</g>
<g>
</g>
<g>
</g>
<g>
</g>
<g>
</g>
<g>
</g>
<g>
</g>
<g>
</g>
<g>
</g>
<g>
</g>
</svg>
